<svg width="19" height="17" viewBox="0 0 19 17" fill="none" xmlns="http://www.w3.org/2000/svg">
<path d="M15.25 16.7383C14.2 16.7383 13.3125 16.3758 12.5875 15.6508C11.8625 14.9258 11.5 14.0383 11.5 12.9883C11.5 11.9383 11.8625 11.0508 12.5875 10.3258C13.3125 9.60078 14.2 9.23828 15.25 9.23828C16.3 9.23828 17.1875 9.60078 17.9125 10.3258C18.6375 11.0508 19 11.9383 19 12.9883C19 14.0383 18.6375 14.9258 17.9125 15.6508C17.1875 16.3758 16.3 16.7383 15.25 16.7383ZM15.25 14.7383C15.7333 14.7383 16.1458 14.5674 16.4875 14.2258C16.8292 13.8841 17 13.4716 17 12.9883C17 12.5049 16.8292 12.0924 16.4875 11.7508C16.1458 11.4091 15.7333 11.2383 15.25 11.2383C14.7667 11.2383 14.3542 11.4091 14.0125 11.7508C13.6708 12.0924 13.5 12.5049 13.5 12.9883C13.5 13.4716 13.6708 13.8841 14.0125 14.2258C14.3542 14.5674 14.7667 14.7383 15.25 14.7383ZM1.5 13.9883V11.9883H9.5V13.9883H1.5ZM3.75 7.73828C2.7 7.73828 1.8125 7.37578 1.0875 6.65078C0.3625 5.92578 0 5.03828 0 3.98828C0 2.93828 0.3625 2.05078 1.0875 1.32578C1.8125 0.600781 2.7 0.238281 3.75 0.238281C4.8 0.238281 5.6875 0.600781 6.4125 1.32578C7.1375 2.05078 7.5 2.93828 7.5 3.98828C7.5 5.03828 7.1375 5.92578 6.4125 6.65078C5.6875 7.37578 4.8 7.73828 3.75 7.73828ZM3.75 5.73828C4.23333 5.73828 4.64583 5.56745 4.9875 5.22578C5.32917 4.88411 5.5 4.47161 5.5 3.98828C5.5 3.50495 5.32917 3.09245 4.9875 2.75078C4.64583 2.40911 4.23333 2.23828 3.75 2.23828C3.26667 2.23828 2.85417 2.40911 2.5125 2.75078C2.17083 3.09245 2 3.50495 2 3.98828C2 4.47161 2.17083 4.88411 2.5125 5.22578C2.85417 5.56745 3.26667 5.73828 3.75 5.73828ZM9.5 4.98828V2.98828H17.5V4.98828H9.5Z" fill="#1C1B1F"/>
</svg>
