<svg width="20" height="18" viewBox="0 0 20 18" fill="none" xmlns="http://www.w3.org/2000/svg">
<path d="M2.30775 17.5C1.80258 17.5 1.375 17.325 1.025 16.975C0.675 16.625 0.5 16.1974 0.5 15.6923V2.30775C0.5 1.80258 0.675 1.375 1.025 1.025C1.375 0.675 1.80258 0.5 2.30775 0.5H7.09625C7.60125 0.5 8.02875 0.675 8.37875 1.025C8.72875 1.375 8.90375 1.80258 8.90375 2.30775V15.6923C8.90375 16.1974 8.72875 16.625 8.37875 16.975C8.02875 17.325 7.60125 17.5 7.09625 17.5H2.30775ZM12.9038 17.5C12.3988 17.5 11.9712 17.325 11.6212 16.975C11.2712 16.625 11.0962 16.1974 11.0962 15.6923V2.30775C11.0962 1.80258 11.2712 1.375 11.6212 1.025C11.9712 0.675 12.3988 0.5 12.9038 0.5H17.6923C18.1974 0.5 18.625 0.675 18.975 1.025C19.325 1.375 19.5 1.80258 19.5 2.30775V15.6923C19.5 16.1974 19.325 16.625 18.975 16.975C18.625 17.325 18.1974 17.5 17.6923 17.5H12.9038ZM2.30775 16H7.09625C7.18592 16 7.25958 15.9712 7.31725 15.9135C7.37508 15.8558 7.404 15.7821 7.404 15.6923V2.30775C7.404 2.21792 7.37508 2.14417 7.31725 2.0865C7.25958 2.02883 7.18592 2 7.09625 2H2.30775C2.21792 2 2.14417 2.02883 2.0865 2.0865C2.02883 2.14417 2 2.21792 2 2.30775V15.6923C2 15.7821 2.02883 15.8558 2.0865 15.9135C2.14417 15.9712 2.21792 16 2.30775 16ZM12.9038 16H17.6923C17.7821 16 17.8558 15.9712 17.9135 15.9135C17.9712 15.8558 18 15.7821 18 15.6923V2.30775C18 2.21792 17.9712 2.14417 17.9135 2.0865C17.8558 2.02883 17.7821 2 17.6923 2H12.9038C12.8141 2 12.7404 2.02883 12.6827 2.0865C12.6249 2.14417 12.596 2.21792 12.596 2.30775V15.6923C12.596 15.7821 12.6249 15.8558 12.6827 15.9135C12.7404 15.9712 12.8141 16 12.9038 16ZM3.19225 11.6923H6.19225V10.1923H3.19225V11.6923ZM13.8077 11.6923H16.8078V10.1923H13.8077V11.6923ZM3.19225 8.7885H6.19225V7.2885H3.19225V8.7885ZM13.8077 8.7885H16.8078V7.2885H13.8077V8.7885ZM3.19225 5.875H6.19225V4.375H3.19225V5.875ZM13.8077 5.875H16.8078V4.375H13.8077V5.875ZM2.30775 16H2H7.404H2.30775ZM12.9038 16H12.596H18H12.9038Z" fill="#1C1B1F"/>
</svg>
