<svg width="43" height="42" viewBox="0 0 43 42" fill="none" xmlns="http://www.w3.org/2000/svg">
<mask id="mask0_3664_8257" style="mask-type:alpha" maskUnits="userSpaceOnUse" x="0" y="0" width="43" height="42">
<rect x="0.379883" width="42" height="42" fill="#D9D9D9"/>
</mask>
<g mask="url(#mask0_3664_8257)">
<path d="M29.45 22.312H9.56738C9.19492 22.312 8.88313 22.1863 8.63201 21.9348C8.38059 21.6837 8.25488 21.3719 8.25488 20.9995C8.25488 20.627 8.38059 20.3152 8.63201 20.0641C8.88313 19.8127 9.19492 19.687 9.56738 19.687H29.45L23.6886 13.9255C23.4284 13.6651 23.2999 13.3604 23.3031 13.0116C23.3066 12.6628 23.4351 12.3526 23.6886 12.081C23.9601 11.8098 24.2719 11.6696 24.6239 11.6606C24.9763 11.6516 25.2882 11.7828 25.5598 12.0543L33.3976 19.8922C33.5615 20.0561 33.677 20.2289 33.7441 20.4106C33.8114 20.5923 33.8451 20.7886 33.8451 20.9995C33.8451 21.2103 33.8114 21.4066 33.7441 21.5883C33.677 21.7701 33.5615 21.9429 33.3976 22.1068L25.5598 29.9446C25.2993 30.2048 24.9903 30.3332 24.6327 30.33C24.2748 30.3265 23.9601 30.1892 23.6886 29.9179C23.4351 29.6464 23.3039 29.3389 23.2948 28.9957C23.2858 28.6524 23.417 28.3449 23.6886 28.0734L29.45 22.312Z" fill="#1D4ED8"/>
</g>
</svg>
