<svg width="24" height="18" viewBox="0 0 24 18" fill="none" xmlns="http://www.w3.org/2000/svg">
<path d="M23.9179 4.76801V15.316C23.9179 16.4762 22.9686 17.4255 21.8083 17.4255H4.93158C4.35144 17.4255 3.87679 16.9509 3.87679 16.3707C3.87679 15.7906 4.35144 15.316 4.93158 15.316H21.8083V4.76801C21.8083 4.18787 22.283 3.71321 22.8631 3.71321C23.4432 3.71321 23.9179 4.18787 23.9179 4.76801ZM3.87679 13.2064C2.12583 13.2064 0.712402 11.7929 0.712402 10.042V3.71321C0.712402 1.96225 2.12583 0.548828 3.87679 0.548828H16.5343C18.2853 0.548828 19.6987 1.96225 19.6987 3.71321V11.0968C19.6987 12.257 18.7494 13.2064 17.5891 13.2064H3.87679ZM7.04117 6.8776C7.04117 8.62855 8.45459 10.042 10.2056 10.042C11.9565 10.042 13.3699 8.62855 13.3699 6.8776C13.3699 5.12664 11.9565 3.71321 10.2056 3.71321C8.45459 3.71321 7.04117 5.12664 7.04117 6.8776Z" fill="#969696"/>
</svg>
