<svg width="14" height="9" viewBox="0 0 14 9" fill="none" xmlns="http://www.w3.org/2000/svg">
<path fill-rule="evenodd" clip-rule="evenodd" d="M10.2335 1.06667L11.1935 2.02667L7.94015 5.28L5.74682 3.08667C5.48682 2.82667 5.06682 2.82667 4.80682 3.08667L0.806816 7.09333C0.546816 7.35333 0.546816 7.77333 0.806816 8.03333C1.06682 8.29333 1.48682 8.29333 1.74682 8.03333L5.27348 4.5L7.46682 6.69333C7.72682 6.95333 8.14682 6.95333 8.40682 6.69333L12.1335 2.97333L13.0935 3.93333C13.3001 4.14 13.6602 3.99333 13.6602 3.7V0.833333C13.6668 0.646667 13.5202 0.5 13.3335 0.5H10.4735C10.1735 0.5 10.0268 0.86 10.2335 1.06667Z" fill="#5CC49F"/>
</svg>
