<svg width="35" height="35" viewBox="0 0 35 35" fill="none" xmlns="http://www.w3.org/2000/svg">
<rect width="35" height="35" rx="8" fill="url(#paint0_linear_3607_4299)"/>
<path d="M17.5 8.5C12.5312 8.5 8.5 12.5312 8.5 17.5C8.5 22.4687 12.5312 26.5 17.5 26.5C22.4687 26.5 26.5 22.4687 26.5 17.5C26.5 12.5312 22.4687 8.5 17.5 8.5ZM17.2187 22.75C17.0333 22.75 16.8521 22.695 16.6979 22.592C16.5437 22.489 16.4236 22.3426 16.3526 22.1713C16.2817 22 16.2631 21.8115 16.2993 21.6296C16.3354 21.4477 16.4247 21.2807 16.5558 21.1496C16.6869 21.0185 16.854 20.9292 17.0359 20.893C17.2177 20.8568 17.4062 20.8754 17.5775 20.9464C17.7488 21.0173 17.8952 21.1375 17.9983 21.2916C18.1013 21.4458 18.1562 21.6271 18.1562 21.8125C18.1562 22.0611 18.0575 22.2996 17.8817 22.4754C17.7058 22.6512 17.4674 22.75 17.2187 22.75ZM18.7862 17.9687C18.0264 18.4787 17.9219 18.9461 17.9219 19.375C17.9219 19.549 17.8527 19.716 17.7297 19.839C17.6066 19.9621 17.4397 20.0312 17.2656 20.0312C17.0916 20.0312 16.9247 19.9621 16.8016 19.839C16.6785 19.716 16.6094 19.549 16.6094 19.375C16.6094 18.348 17.0819 17.5314 18.0541 16.8784C18.9578 16.2719 19.4687 15.8875 19.4687 15.0423C19.4687 14.4677 19.1406 14.0312 18.4614 13.7083C18.3016 13.6323 17.9458 13.5583 17.508 13.5634C16.9586 13.5705 16.532 13.7017 16.2034 13.9661C15.5837 14.4648 15.5312 15.0077 15.5312 15.0156C15.5271 15.1018 15.506 15.1863 15.4692 15.2644C15.4324 15.3424 15.3805 15.4124 15.3167 15.4704C15.2528 15.5284 15.1781 15.5732 15.0969 15.6024C15.0157 15.6315 14.9295 15.6444 14.8434 15.6402C14.7572 15.6361 14.6727 15.615 14.5946 15.5782C14.5166 15.5414 14.4466 15.4895 14.3886 15.4256C14.3306 15.3618 14.2857 15.2871 14.2566 15.2059C14.2275 15.1247 14.2146 15.0385 14.2187 14.9523C14.2239 14.8384 14.3031 13.8123 15.3798 12.9461C15.9381 12.497 16.6483 12.2636 17.4892 12.2533C18.0845 12.2462 18.6437 12.347 19.023 12.5261C20.1578 13.0628 20.7812 13.9577 20.7812 15.0423C20.7812 16.6281 19.7214 17.3402 18.7862 17.9687Z" fill="white"/>
<defs>
<linearGradient id="paint0_linear_3607_4299" x1="0" y1="0" x2="35" y2="35" gradientUnits="userSpaceOnUse">
<stop stop-color="#93C5FD"/>
<stop offset="1" stop-color="#1D4ED8"/>
</linearGradient>
</defs>
</svg>
