<svg width="20" height="20" viewBox="0 0 20 20" fill="none" xmlns="http://www.w3.org/2000/svg">
<path d="M2.5 5.83398H8.33333M8.33333 5.83398C8.33333 7.2147 9.45262 8.33398 10.8333 8.33398H11.6667C13.0474 8.33398 14.1667 7.2147 14.1667 5.83398C14.1667 4.45327 13.0474 3.33398 11.6667 3.33398H10.8333C9.45262 3.33398 8.33333 4.45327 8.33333 5.83398ZM13.3333 14.1673H17.5M16.6667 5.83398H17.5M2.5 14.1673H5M5 14.1673C5 15.548 6.11929 16.6673 7.5 16.6673H8.33333C9.71404 16.6673 10.8333 15.548 10.8333 14.1673C10.8333 12.7866 9.71404 11.6673 8.33333 11.6673H7.5C6.11929 11.6673 5 12.7866 5 14.1673Z" stroke="black" stroke-opacity="0.4" stroke-linecap="round" stroke-linejoin="round"/>
</svg>
