<svg width="18" height="20" viewBox="0 0 18 20" fill="none" xmlns="http://www.w3.org/2000/svg">
<path d="M13.7931 7.33481C13.7931 6.00873 13.275 4.73696 12.3529 3.79928C11.4307 2.86159 10.18 2.33481 8.87585 2.33481C7.57172 2.33481 6.321 2.86159 5.39884 3.79928C4.47668 4.73696 3.95862 6.00873 3.95862 7.33481C3.95862 13.1681 1.5 14.8348 1.5 14.8348H16.2517C16.2517 14.8348 13.7931 13.1681 13.7931 7.33481Z" stroke="#0E1726" stroke-width="1.5" stroke-linecap="round" stroke-linejoin="round"/>
<path d="M10.2937 17.8348C10.1496 18.0874 9.94276 18.297 9.69394 18.4428C9.44511 18.5885 9.163 18.6652 8.87585 18.6652C8.5887 18.6652 8.30659 18.5885 8.05776 18.4428C7.80894 18.297 7.60213 18.0874 7.45805 17.8348" stroke="#0E1726" stroke-width="1.5" stroke-linecap="round" stroke-linejoin="round"/>
<circle cx="14" cy="3.99887" r="4" fill="#EF4444"/>
</svg>
