<svg width="17" height="19" viewBox="0 0 17 19" fill="none" xmlns="http://www.w3.org/2000/svg">
<path d="M13.7931 6.33594C13.7931 5.00985 13.275 3.73809 12.3529 2.8004C11.4307 1.86272 10.18 1.33594 8.87585 1.33594C7.57172 1.33594 6.321 1.86272 5.39884 2.8004C4.47668 3.73809 3.95862 5.00985 3.95862 6.33594C3.95862 12.1693 1.5 13.8359 1.5 13.8359H16.2517C16.2517 13.8359 13.7931 12.1693 13.7931 6.33594Z" stroke="#0E1726" stroke-width="1.5" stroke-linecap="round" stroke-linejoin="round"/>
<path d="M10.2936 16.8359C10.1495 17.0885 9.94272 17.2981 9.6939 17.4439C9.44507 17.5896 9.16296 17.6663 8.87581 17.6663C8.58866 17.6663 8.30655 17.5896 8.05772 17.4439C7.8089 17.2981 7.60209 17.0885 7.45801 16.8359" stroke="#0E1726" stroke-width="1.5" stroke-linecap="round" stroke-linejoin="round"/>
</svg>
