<svg width="16" height="16" viewBox="0 0 16 16" fill="none" xmlns="http://www.w3.org/2000/svg">
<path d="M6.93556 11.1903L11.9778 6.14806L11.1875 5.35775L6.93556 9.60969L4.79806 7.47219L4.00775 8.2625L6.93556 11.1903ZM8.00131 15.125C7.01581 15.125 6.0895 14.938 5.22237 14.564C4.35525 14.19 3.601 13.6824 2.95962 13.0413C2.31825 12.4002 1.81044 11.6463 1.43619 10.7795C1.06206 9.91275 0.875 8.98669 0.875 8.00131C0.875 7.01581 1.062 6.0895 1.436 5.22237C1.81 4.35525 2.31756 3.601 2.95869 2.95962C3.59981 2.31825 4.35375 1.81044 5.2205 1.43619C6.08725 1.06206 7.01331 0.875 7.99869 0.875C8.98419 0.875 9.9105 1.062 10.7776 1.436C11.6448 1.81 12.399 2.31756 13.0404 2.95869C13.6818 3.59981 14.1896 4.35375 14.5638 5.2205C14.9379 6.08725 15.125 7.01331 15.125 7.99869C15.125 8.98419 14.938 9.9105 14.564 10.7776C14.19 11.6448 13.6824 12.399 13.0413 13.0404C12.4002 13.6818 11.6463 14.1896 10.7795 14.5638C9.91275 14.9379 8.98669 15.125 8.00131 15.125ZM8 14C9.675 14 11.0938 13.4187 12.2563 12.2563C13.4187 11.0938 14 9.675 14 8C14 6.325 13.4187 4.90625 12.2563 3.74375C11.0938 2.58125 9.675 2 8 2C6.325 2 4.90625 2.58125 3.74375 3.74375C2.58125 4.90625 2 6.325 2 8C2 9.675 2.58125 11.0938 3.74375 12.2563C4.90625 13.4187 6.325 14 8 14Z" fill="#2F6E07"/>
</svg>
