<svg width="16" height="16" viewBox="0 0 16 16" fill="none" xmlns="http://www.w3.org/2000/svg">
<path d="M10.6047 11.3952L11.3953 10.6048L8.5625 7.772V4.25H7.4375V8.22781L10.6047 11.3952ZM8.00131 15.125C7.01581 15.125 6.0895 14.938 5.22237 14.564C4.35525 14.19 3.601 13.6824 2.95962 13.0413C2.31825 12.4002 1.81044 11.6463 1.43619 10.7795C1.06206 9.91275 0.875 8.98669 0.875 8.00131C0.875 7.01581 1.062 6.0895 1.436 5.22237C1.81 4.35525 2.31756 3.601 2.95869 2.95962C3.59981 2.31825 4.35375 1.81044 5.2205 1.43619C6.08725 1.06206 7.01331 0.875 7.99869 0.875C8.98419 0.875 9.9105 1.062 10.7776 1.436C11.6448 1.81 12.399 2.31756 13.0404 2.95869C13.6818 3.59981 14.1896 4.35375 14.5638 5.2205C14.9379 6.08725 15.125 7.01331 15.125 7.99869C15.125 8.98419 14.938 9.9105 14.564 10.7776C14.19 11.6448 13.6824 12.399 13.0413 13.0404C12.4002 13.6818 11.6463 14.1896 10.7795 14.5638C9.91275 14.9379 8.98669 15.125 8.00131 15.125ZM8 14C9.6625 14 11.0781 13.4156 12.2469 12.2469C13.4156 11.0781 14 9.6625 14 8C14 6.3375 13.4156 4.92188 12.2469 3.75313C11.0781 2.58438 9.6625 2 8 2C6.3375 2 4.92188 2.58438 3.75313 3.75313C2.58438 4.92188 2 6.3375 2 8C2 9.6625 2.58438 11.0781 3.75313 12.2469C4.92188 13.4156 6.3375 14 8 14Z" fill="#0F4EE0"/>
</svg>
