<svg width="12" height="14" viewBox="0 0 12 14" fill="none" xmlns="http://www.w3.org/2000/svg">
<path d="M2.48081 13.3743C2.10681 13.3743 1.78731 13.2419 1.52231 12.977C1.25744 12.712 1.125 12.3925 1.125 12.0185V2.49931H0.375V1.37431H3.75V0.710938H8.25V1.37431H11.625V2.49931H10.875V12.0185C10.875 12.3974 10.7438 12.7181 10.4813 12.9806C10.2188 13.2431 9.89806 13.3743 9.51919 13.3743H2.48081ZM9.75 2.49931H2.25V12.0185C2.25 12.0859 2.27162 12.1412 2.31487 12.1844C2.35812 12.2277 2.41344 12.2493 2.48081 12.2493H9.51919C9.57694 12.2493 9.62981 12.2253 9.67781 12.1771C9.72594 12.1291 9.75 12.0763 9.75 12.0185V2.49931ZM4.053 10.7493H5.17781V3.99931H4.053V10.7493ZM6.82219 10.7493H7.947V3.99931H6.82219V10.7493Z" fill="#4E5247"/>
</svg>
