<svg width="12" height="14" viewBox="0 0 12 14" fill="none" xmlns="http://www.w3.org/2000/svg">
<path d="M2.48081 13.0853C2.10681 13.0853 1.78731 12.9528 1.52231 12.6879C1.25744 12.4229 1.125 12.1034 1.125 11.7294V2.21025H0.375V1.08525H3.75V0.421875H8.25V1.08525H11.625V2.21025H10.875V11.7294C10.875 12.1083 10.7438 12.429 10.4813 12.6915C10.2188 12.954 9.89806 13.0853 9.51919 13.0853H2.48081ZM9.75 2.21025H2.25V11.7294C2.25 11.7968 2.27162 11.8521 2.31487 11.8954C2.35812 11.9386 2.41344 11.9603 2.48081 11.9603H9.51919C9.57694 11.9603 9.62981 11.9362 9.67781 11.8881C9.72594 11.8401 9.75 11.7872 9.75 11.7294V2.21025ZM4.053 10.4603H5.17781V3.71025H4.053V10.4603ZM6.82219 10.4603H7.947V3.71025H6.82219V10.4603Z" fill="#1C1B1F"/>
</svg>
