<svg width="16" height="16" viewBox="0 0 16 16" fill="none" xmlns="http://www.w3.org/2000/svg">
<path d="M7.99922 15.0531C7.82322 15.0531 7.65303 15.0193 7.48866 14.9515C7.32428 14.8836 7.17428 14.7858 7.03866 14.6579L1.34447 8.96369C1.21659 8.82806 1.11872 8.67806 1.05084 8.51369C0.983094 8.34931 0.949219 8.17913 0.949219 8.00313C0.949219 7.82713 0.983094 7.655 1.05084 7.48675C1.11872 7.3185 1.21659 7.17044 1.34447 7.04256L7.03866 1.34838C7.17428 1.21275 7.32428 1.113 7.48866 1.04912C7.65303 0.985125 7.82322 0.953125 7.99922 0.953125C8.17522 0.953125 8.34734 0.985125 8.51559 1.04912C8.68384 1.113 8.83191 1.21275 8.95978 1.34838L14.654 7.04256C14.7896 7.17044 14.8893 7.3185 14.9532 7.48675C15.0172 7.655 15.0492 7.82713 15.0492 8.00313C15.0492 8.17913 15.0172 8.34931 14.9532 8.51369C14.8893 8.67806 14.7896 8.82806 14.654 8.96369L8.95978 14.6579C8.83191 14.7858 8.68384 14.8836 8.51559 14.9515C8.34734 15.0193 8.17522 15.0531 7.99922 15.0531ZM8.16516 13.8559L13.852 8.16906C13.8905 8.13056 13.9098 8.07525 13.9098 8.00313C13.9098 7.931 13.8905 7.87569 13.852 7.83719L8.16516 2.15031C8.12666 2.11181 8.07134 2.09256 7.99922 2.09256C7.92709 2.09256 7.87178 2.11181 7.83328 2.15031L2.14641 7.83719C2.10791 7.87569 2.08866 7.931 2.08866 8.00313C2.08866 8.07525 2.10791 8.13056 2.14641 8.16906L7.83328 13.8559C7.87178 13.8944 7.92709 13.9137 7.99922 13.9137C8.07134 13.9137 8.12666 13.8944 8.16516 13.8559ZM7.43672 8.818H8.56172V4.60656H7.43672V8.818ZM7.99922 10.7796C8.16847 10.7796 8.31172 10.7209 8.42897 10.6036C8.54634 10.4863 8.60503 10.3431 8.60503 10.1738C8.60503 10.0046 8.54634 9.86131 8.42897 9.74406C8.31172 9.62669 8.16847 9.568 7.99922 9.568C7.82997 9.568 7.68672 9.62669 7.56947 9.74406C7.45209 9.86131 7.39341 10.0046 7.39341 10.1738C7.39341 10.3431 7.45209 10.4863 7.56947 10.6036C7.68672 10.7209 7.82997 10.7796 7.99922 10.7796Z" fill="#BD0000"/>
</svg>
