<svg width="448" height="126" viewBox="0 0 448 126" fill="none" xmlns="http://www.w3.org/2000/svg">
<g filter="url(#filter0_d_2_59)">
<path d="M422 6H25.679C17.572 6 11 12.5718 11 20.6785V94.0716C11 102.179 17.572 108.75 25.679 108.75H422C430.107 108.75 436.68 102.179 436.68 94.0716V20.6785C436.68 12.5718 430.107 6 422 6Z" fill="white"/>
</g>
<path d="M213.564 29.4844H137.236C132.372 29.4844 128.429 33.4274 128.429 38.2916C128.429 43.1556 132.372 47.0986 137.236 47.0986H213.564C218.428 47.0986 222.372 43.1556 222.372 38.2916C222.372 33.4274 218.428 29.4844 213.564 29.4844Z" fill="#B4DAFF"/>
<path d="M266.407 67.6486H137.236C132.372 67.6486 128.429 71.5916 128.429 76.4556C128.429 81.3196 132.372 85.2626 137.236 85.2626H266.407C271.271 85.2626 275.214 81.3196 275.214 76.4556C275.214 71.5916 271.271 67.6486 266.407 67.6486Z" fill="#DEE9FC"/>
<path d="M90.264 14.8086H34.485C26.378 14.8086 19.807 21.3804 19.807 29.4871V85.2656C19.807 93.3726 26.378 99.9446 34.485 99.9446H90.264C98.371 99.9446 104.942 93.3726 104.942 85.2656V29.4871C104.942 21.3804 98.371 14.8086 90.264 14.8086Z" fill="#1485FD"/>
<mask id="mask0_2_59" style="mask-type:alpha" maskUnits="userSpaceOnUse" x="40" y="36" width="44" height="44">
<path d="M83.635 36.7926H40.905V79.5226H83.635V36.7926Z" fill="#D9D9D9"/>
</mask>
<g mask="url(#mask0_2_59)">
<path d="M48.575 73.2906C47.676 73.2906 46.914 72.9786 46.291 72.3556C45.668 71.7326 45.356 70.9716 45.356 70.0716V46.2416C45.356 45.3426 45.668 44.5816 46.291 43.9586C46.914 43.3346 47.676 43.0236 48.575 43.0236H57.101C58 43.0236 58.7609 43.3346 59.3839 43.9586C60.0069 44.5816 60.3189 45.3426 60.3189 46.2416V70.0716C60.3189 70.9716 60.0069 71.7326 59.3839 72.3556C58.7609 72.9786 58 73.2906 57.101 73.2906H48.575ZM67.4399 73.2906C66.5409 73.2906 65.7799 72.9786 65.1569 72.3556C64.5339 71.7326 64.2219 70.9716 64.2219 70.0716V46.2416C64.2219 45.3426 64.5339 44.5816 65.1569 43.9586C65.7799 43.3346 66.5409 43.0236 67.4399 43.0236H75.9659C76.8649 43.0236 77.6259 43.3346 78.2499 43.9586C78.8729 44.5816 79.184 45.3426 79.184 46.2416V70.0716C79.184 70.9716 78.8729 71.7326 78.2499 72.3556C77.6259 72.9786 76.8649 73.2906 75.9659 73.2906H67.4399ZM48.575 70.6196H57.101C57.26 70.6196 57.391 70.5686 57.494 70.4656C57.597 70.3636 57.6479 70.2316 57.6479 70.0716V46.2416C57.6479 46.0816 57.597 45.9506 57.494 45.8476C57.391 45.7456 57.26 45.6936 57.101 45.6936H48.575C48.415 45.6936 48.284 45.7456 48.181 45.8476C48.078 45.9506 48.0269 46.0816 48.0269 46.2416V70.0716C48.0269 70.2316 48.078 70.3636 48.181 70.4656C48.284 70.5686 48.415 70.6196 48.575 70.6196ZM67.4399 70.6196H75.9659C76.1259 70.6196 76.2569 70.5686 76.3599 70.4656C76.4619 70.3636 76.5139 70.2316 76.5139 70.0716V46.2416C76.5139 46.0816 76.4619 45.9506 76.3599 45.8476C76.2569 45.7456 76.1259 45.6936 75.9659 45.6936H67.4399C67.2809 45.6936 67.1489 45.7456 67.0469 45.8476C66.9439 45.9506 66.892 46.0816 66.892 46.2416V70.0716C66.892 70.2316 66.9439 70.3636 67.0469 70.4656C67.1489 70.5686 67.2809 70.6196 67.4399 70.6196ZM50.15 62.9506H55.491V60.2796H50.15V62.9506ZM69.0499 62.9506H74.3909V60.2796H69.0499V62.9506ZM50.15 57.7806H55.491V55.1096H50.15V57.7806ZM69.0499 57.7806H74.3909V55.1096H69.0499V57.7806ZM50.15 52.5936H55.491V49.9226H50.15V52.5936ZM69.0499 52.5936H74.3909V49.9226H69.0499V52.5936ZM48.575 70.6196H48.0269H57.6479H48.575ZM67.4399 70.6196H66.892H76.5139H67.4399Z" fill="white"/>
</g>
<defs>
<filter id="filter0_d_2_59" x="0.0714197" y="0.53571" width="447.537" height="124.607" filterUnits="userSpaceOnUse" color-interpolation-filters="sRGB">
<feFlood flood-opacity="0" result="BackgroundImageFix"/>
<feColorMatrix in="SourceAlpha" type="matrix" values="0 0 0 0 0 0 0 0 0 0 0 0 0 0 0 0 0 0 127 0" result="hardAlpha"/>
<feOffset dy="5.46429"/>
<feGaussianBlur stdDeviation="5.46429"/>
<feColorMatrix type="matrix" values="0 0 0 0 0 0 0 0 0 0 0 0 0 0 0 0 0 0 0.161 0"/>
<feBlend mode="normal" in2="BackgroundImageFix" result="effect1_dropShadow_2_59"/>
<feBlend mode="normal" in="SourceGraphic" in2="effect1_dropShadow_2_59" result="shape"/>
</filter>
</defs>
</svg>
