<svg width="328" height="75" viewBox="0 0 328 75" fill="none" xmlns="http://www.w3.org/2000/svg">
<mask id="mask0_4560_27864" style="mask-type:alpha" maskUnits="userSpaceOnUse" x="-56" y="-148" width="441" height="371">
<path d="M0.000155593 -147.5L0.000155593 222.5" stroke="black" stroke-width="1.5"/>
<path d="M4.00016 -147.5L4.00016 222.5" stroke="black" stroke-width="1.5"/>
<path d="M8.00016 -147.5L8.00016 222.5" stroke="black" stroke-width="1.5"/>
<path d="M12.0002 -147.5L12.0002 222.5" stroke="black" stroke-width="1.5"/>
<path d="M16 -147.5L16 222.5" stroke="black" stroke-width="1.5"/>
<path d="M20.0002 -147.5L20.0002 222.5" stroke="black" stroke-width="1.5"/>
<path d="M24.0002 -147.5L24.0002 222.5" stroke="black" stroke-width="1.5"/>
<path d="M28.0002 -147.5L28.0002 222.5" stroke="black" stroke-width="1.5"/>
<path d="M32.0002 -147.5L32.0002 222.5" stroke="black" stroke-width="1.5"/>
<path d="M36.0002 -147.5L36.0002 222.5" stroke="black" stroke-width="1.5"/>
<path d="M40.0002 -147.5L40.0002 222.5" stroke="black" stroke-width="1.5"/>
<path d="M44.0002 -147.5L44.0002 222.5" stroke="black" stroke-width="1.5"/>
<path d="M48.0002 -147.5L48.0002 222.5" stroke="black" stroke-width="1.5"/>
<path d="M52.0002 -147.5L52.0002 222.5" stroke="black" stroke-width="1.5"/>
<path d="M56.0002 -147.5L56.0002 222.5" stroke="black" stroke-width="1.5"/>
<path d="M60.0002 -147.5L60.0002 222.5" stroke="black" stroke-width="1.5"/>
<path d="M64.0002 -147.5L64.0002 222.5" stroke="black" stroke-width="1.5"/>
<path d="M68.0002 -147.5L68.0002 222.5" stroke="black" stroke-width="1.5"/>
<path d="M72.0002 -147.5L72.0002 222.5" stroke="black" stroke-width="1.5"/>
<path d="M76.0002 -147.5L76.0002 222.5" stroke="black" stroke-width="1.5"/>
<path d="M80.0002 -147.5L80.0002 222.5" stroke="black" stroke-width="1.5"/>
<path d="M84.0002 -147.5L84.0002 222.5" stroke="black" stroke-width="1.5"/>
<path d="M88.0002 -147.5L88.0002 222.5" stroke="black" stroke-width="1.5"/>
<path d="M92.0002 -147.5L92.0002 222.5" stroke="black" stroke-width="1.5"/>
<path d="M96.0002 -147.5L96.0002 222.5" stroke="black" stroke-width="1.5"/>
<path d="M100 -147.5L100 222.5" stroke="black" stroke-width="1.5"/>
<path d="M104 -147.5L104 222.5" stroke="black" stroke-width="1.5"/>
<path d="M108 -147.5L108 222.5" stroke="black" stroke-width="1.5"/>
<path d="M112 -147.5L112 222.5" stroke="black" stroke-width="1.5"/>
<path d="M116 -147.5L116 222.5" stroke="black" stroke-width="1.5"/>
<path d="M120 -147.5L120 222.5" stroke="black" stroke-width="1.5"/>
<path d="M124 -147.5L124 222.5" stroke="black" stroke-width="1.5"/>
<path d="M128 -147.5L128 222.5" stroke="black" stroke-width="1.5"/>
<path d="M132 -147.5L132 222.5" stroke="black" stroke-width="1.5"/>
<path d="M136 -147.5L136 222.5" stroke="black" stroke-width="1.5"/>
<path d="M140 -147.5L140 222.5" stroke="black" stroke-width="1.5"/>
<path d="M144 -147.5L144 222.5" stroke="black" stroke-width="1.5"/>
<path d="M148 -147.5L148 222.5" stroke="black" stroke-width="1.5"/>
<path d="M152 -147.5L152 222.5" stroke="black" stroke-width="1.5"/>
<path d="M156 -147.5L156 222.5" stroke="black" stroke-width="1.5"/>
<path d="M160 -147.5L160 222.5" stroke="black" stroke-width="1.5"/>
<path d="M164 -147.5L164 222.5" stroke="black" stroke-width="1.5"/>
<path d="M168 -147.5L168 222.5" stroke="black" stroke-width="1.5"/>
<path d="M172 -147.5L172 222.5" stroke="black" stroke-width="1.5"/>
<path d="M176 -147.5L176 222.5" stroke="black" stroke-width="1.5"/>
<path d="M180 -147.5L180 222.5" stroke="black" stroke-width="1.5"/>
<path d="M184 -147.5L184 222.5" stroke="black" stroke-width="1.5"/>
<path d="M188 -147.5L188 222.5" stroke="black" stroke-width="1.5"/>
<path d="M192 -147.5L192 222.5" stroke="black" stroke-width="1.5"/>
<path d="M196 -147.5L196 222.5" stroke="black" stroke-width="1.5"/>
<path d="M200 -147.5L200 222.5" stroke="black" stroke-width="1.5"/>
<path d="M204 -147.5L204 222.5" stroke="black" stroke-width="1.5"/>
<path d="M208 -147.5L208 222.5" stroke="black" stroke-width="1.5"/>
<path d="M212 -147.5L212 222.5" stroke="black" stroke-width="1.5"/>
<path d="M216 -147.5L216 222.5" stroke="black" stroke-width="1.5"/>
<path d="M220 -147.5L220 222.5" stroke="black" stroke-width="1.5"/>
<path d="M224 -147.5L224 222.5" stroke="black" stroke-width="1.5"/>
<path d="M228 -147.5L228 222.5" stroke="black" stroke-width="1.5"/>
<path d="M232 -147.5L232 222.5" stroke="black" stroke-width="1.5"/>
<path d="M236 -147.5L236 222.5" stroke="black" stroke-width="1.5"/>
<path d="M240 -147.5L240 222.5" stroke="black" stroke-width="1.5"/>
<path d="M244 -147.5L244 222.5" stroke="black" stroke-width="1.5"/>
<path d="M248 -147.5L248 222.5" stroke="black" stroke-width="1.5"/>
<path d="M252 -147.5L252 222.5" stroke="black" stroke-width="1.5"/>
<path d="M256 -147.5V222.5" stroke="black" stroke-width="1.5"/>
<path d="M260 -147.5V222.5" stroke="black" stroke-width="1.5"/>
<path d="M264 -147.5V222.5" stroke="black" stroke-width="1.5"/>
<path d="M268 -147.5V222.5" stroke="black" stroke-width="1.5"/>
<path d="M272 -147.5V222.5" stroke="black" stroke-width="1.5"/>
<path d="M276 -147.5V222.5" stroke="black" stroke-width="1.5"/>
<path d="M280 -147.5V222.5" stroke="black" stroke-width="1.5"/>
<path d="M284 -147.5V222.5" stroke="black" stroke-width="1.5"/>
<path d="M288 -147.5V222.5" stroke="black" stroke-width="1.5"/>
<path d="M292 -147.5V222.5" stroke="black" stroke-width="1.5"/>
<path d="M296 -147.5V222.5" stroke="black" stroke-width="1.5"/>
<path d="M300 -147.5V222.5" stroke="black" stroke-width="1.5"/>
<path d="M304 -147.5V222.5" stroke="black" stroke-width="1.5"/>
<path d="M308 -147.5V222.5" stroke="black" stroke-width="1.5"/>
<path d="M312 -147.5V222.5" stroke="black" stroke-width="1.5"/>
<path d="M316 -147.5V222.5" stroke="black" stroke-width="1.5"/>
<path d="M320 -147.5V222.5" stroke="black" stroke-width="1.5"/>
<path d="M324 -147.5V222.5" stroke="black" stroke-width="1.5"/>
<path d="M328 -147.5V222.5" stroke="black" stroke-width="1.5"/>
</mask>
<g mask="url(#mask0_4560_27864)">
<rect width="328" height="75" rx="16" fill="url(#paint0_linear_4560_27864)"/>
</g>
<defs>
<linearGradient id="paint0_linear_4560_27864" x1="208" y1="-90.5" x2="208" y2="78.5" gradientUnits="userSpaceOnUse">
<stop stop-color="#93C5FD"/>
<stop offset="1" stop-color="#1D4ED8" stop-opacity="0"/>
</linearGradient>
</defs>
</svg>
