<svg width="19" height="19" viewBox="0 0 19 19" fill="none" xmlns="http://www.w3.org/2000/svg">
<path d="M7.61714 0.527344C11.5068 0.527344 14.6601 3.68057 14.6601 7.57027C14.6601 9.28463 14.0475 10.8559 13.0294 12.0772L18.3141 17.3618C18.5642 17.6118 18.5642 18.0172 18.3141 18.2673C18.0919 18.4895 17.7469 18.5142 17.4973 18.3413L17.4087 18.2673L12.1241 12.9825C10.9028 14.0007 9.33151 14.6132 7.61714 14.6132C3.72744 14.6132 0.574219 11.46 0.574219 7.57027C0.574219 3.68057 3.72744 0.527344 7.61714 0.527344ZM7.61714 1.80788C4.43466 1.80788 1.85475 4.38779 1.85475 7.57027C1.85475 10.7528 4.43466 13.3327 7.61714 13.3327C10.7996 13.3327 13.3795 10.7528 13.3795 7.57027C13.3795 4.38779 10.7996 1.80788 7.61714 1.80788Z" fill="#212121"/>
</svg>
