<svg width="16" height="16" viewBox="0 0 16 16" fill="none" xmlns="http://www.w3.org/2000/svg">
<path d="M8.00131 15.125C7.01581 15.125 6.0895 14.9379 5.22237 14.5638C4.35525 14.1898 3.601 13.6822 2.95962 13.0409C2.31825 12.3997 1.81044 11.6456 1.43619 10.7788C1.06206 9.91188 0.875 8.98563 0.875 8C0.875 7.00775 1.06106 6.08131 1.43319 5.22069C1.80531 4.36006 2.31444 3.60669 2.96056 2.96056L3.75087 3.75087C3.20088 4.30088 2.77156 4.93763 2.46294 5.66113C2.15431 6.38462 2 7.16425 2 8C2 9.675 2.58125 11.0938 3.74375 12.2563C4.90625 13.4187 6.325 14 8 14C9.675 14 11.0938 13.4187 12.2563 12.2563C13.4187 11.0938 14 9.675 14 8C14 7.1625 13.8457 6.38244 13.5371 5.65981C13.2284 4.93719 12.7991 4.30088 12.2491 3.75087L13.0394 2.96056C13.6856 3.60669 14.1947 4.36006 14.5668 5.22069C14.9389 6.08131 15.125 7.00881 15.125 8.00319C15.125 8.98569 14.938 9.9105 14.564 10.7776C14.19 11.6448 13.6824 12.399 13.0413 13.0404C12.4002 13.6818 11.6463 14.1896 10.7795 14.5638C9.91275 14.9379 8.98669 15.125 8.00131 15.125ZM7.4375 8.75V0.875H8.5625V8.75H7.4375Z" fill="#EF8B44"/>
</svg>
